<?xml version="1.0" encoding="UTF-8"?>
<svg xmlns="http://www.w3.org/2000/svg" viewBox="-5 -5 50 50">
  <defs>
    <linearGradient id="bg" x1="0" y1="0" x2="0" y2="40" gradientUnits="userSpaceOnUse">
      <stop offset="0%" stop-color="#BEC9D0" />
      <stop offset="33%" stop-color="#BECAD0" />
      <stop offset="80%" stop-color="#969FA4" />
      <stop offset="100%" stop-color="#788085" />
    </linearGradient>
  </defs>
  <g fill="url(#bg)">
    <path d="M 19.720,0.280 C 19.850,0.070 20.160,0.070 20.290,0.280 26.803,11.013 33.317,21.747 39.830,32.480 39.860,32.530 39.880,32.590 39.880,32.650 39.880,34.937 39.880,37.223 39.880,39.510 39.880,39.690 39.730,39.840 39.550,39.840 34.250,39.847 28.950,39.853 23.650,39.860 23.470,39.860 23.320,39.710 23.320,39.530 23.320,37.100 23.320,34.670 23.320,32.240 23.320,32.060 23.470,31.910 23.650,31.910 25.893,31.910 28.137,31.910 30.380,31.910 30.640,31.910 30.800,31.630 30.660,31.410 27.200,25.717 23.740,20.023 20.280,14.330 20.150,14.120 19.840,14.120 19.710,14.330 16.253,20.027 12.797,25.723 9.340,31.420 9.210,31.640 9.360,31.920 9.620,31.920 11.863,31.920 14.107,31.920 16.350,31.920 16.530,31.920 16.680,32.070 16.680,32.250 16.680,34.680 16.680,37.110 16.680,39.540 16.680,39.720 16.530,39.870 16.350,39.870 11.050,39.863 5.750,39.857 0.450,39.850 0.270,39.850 0.120,39.700 0.120,39.520 0.120,37.233 0.120,34.947 0.120,32.660 0.120,32.600 0.140,32.540 0.170,32.490 6.687,21.753 13.203,11.017 19.720,0.280 19.720,0.280 19.720,0.280 19.720,0.280 Z " />
  </g>
</svg>