<?xml version="1.0" encoding="UTF-8"?>
<svg xmlns="http://www.w3.org/2000/svg" viewBox="-5 -5 50 50">
  <defs>
    <linearGradient id="bg" x1="0" y1="0" x2="0" y2="40" gradientUnits="userSpaceOnUse">
      <stop offset="0%" stop-color="#BEC9D0" />
      <stop offset="33%" stop-color="#BECAD0" />
      <stop offset="80%" stop-color="#969FA4" />
      <stop offset="100%" stop-color="#788085" />
    </linearGradient>
  </defs>
  <g fill="url(#bg)">
    <path d="M 9.940,0.280 C 6.687,5.430 3.433,10.580 0.180,15.730 0.150,15.780 0.130,15.840 0.130,15.910 0.130,18.640 0.130,21.370 0.130,24.100 0.130,24.160 0.150,24.220 0.180,24.280 2.673,28.227 5.167,32.173 7.660,36.120 7.800,36.340 8.120,36.320 8.240,36.090 9.510,33.553 10.780,31.017 12.050,28.480 12.100,28.380 12.100,28.250 12.030,28.150 10.387,25.550 8.743,22.950 7.100,20.350 6.960,20.130 6.960,19.860 7.100,19.640 9.473,15.887 11.847,12.133 14.220,8.380 14.340,8.190 14.550,8.070 14.780,8.070 17.207,8.070 19.633,8.070 22.060,8.070 22.190,8.070 22.300,8.000 22.360,7.890 23.577,5.460 24.793,3.030 26.010,0.600 26.120,0.380 25.960,0.120 25.710,0.120 20.543,0.120 15.377,0.120 10.210,0.120 10.110,0.120 10.000,0.180 9.940,0.280 9.940,0.280 9.940,0.280 9.940,0.280 Z " />
    <path d="M 39.820,15.730 C 37.327,11.783 34.833,7.837 32.340,3.890 32.200,3.670 31.880,3.690 31.760,3.920 30.490,6.457 29.220,8.993 27.950,11.530 27.900,11.630 27.900,11.760 27.970,11.860 29.613,14.457 31.257,17.053 32.900,19.650 33.040,19.870 33.040,20.140 32.900,20.360 30.527,24.113 28.153,27.867 25.780,31.620 25.660,31.810 25.450,31.930 25.220,31.930 22.793,31.930 20.367,31.930 17.940,31.930 17.810,31.930 17.700,32.000 17.640,32.110 16.423,34.540 15.207,36.970 13.990,39.400 13.880,39.620 14.040,39.880 14.290,39.880 19.457,39.880 24.623,39.880 29.790,39.880 29.900,39.880 30.010,39.820 30.070,39.730 33.323,34.580 36.577,29.430 39.830,24.280 39.860,24.230 39.880,24.170 39.880,24.100 39.880,21.367 39.880,18.633 39.880,15.900 39.870,15.840 39.860,15.780 39.820,15.730 39.820,15.730 39.820,15.730 39.820,15.730 Z " />
  </g>
</svg>