<?xml version="1.0" encoding="UTF-8"?>
<svg xmlns="http://www.w3.org/2000/svg" viewBox="-5 -5 50 50">
  <defs>
    <linearGradient id="bg" x1="0" y1="0" x2="0" y2="40" gradientUnits="userSpaceOnUse">
      <stop offset="0%" stop-color="#BEC9D0" />
      <stop offset="33%" stop-color="#BECAD0" />
      <stop offset="80%" stop-color="#969FA4" />
      <stop offset="100%" stop-color="#788085" />
    </linearGradient>
  </defs>
  <g fill="url(#bg)">
    <path d="M 5.330,0.220 C 3.627,1.923 1.923,3.627 0.220,5.330 0.160,5.390 0.120,5.480 0.120,5.560 0.120,8.937 0.120,12.313 0.120,15.690 0.120,15.870 0.270,16.020 0.450,16.020 2.880,16.020 5.310,16.020 7.740,16.020 7.920,16.020 8.070,15.870 8.070,15.690 8.070,13.373 8.070,11.057 8.070,8.740 8.070,8.370 8.370,8.080 8.730,8.080 11.050,8.080 13.370,8.080 15.690,8.080 15.870,8.080 16.020,7.930 16.020,7.750 16.020,5.320 16.020,2.890 16.020,0.460 16.020,0.280 15.870,0.130 15.690,0.130 12.313,0.130 8.937,0.130 5.560,0.130 5.470,0.120 5.390,0.160 5.330,0.220 5.330,0.220 5.330,0.220 5.330,0.220 Z" />
    <path d="M 39.780,5.330 C 38.077,3.627 36.373,1.923 34.670,0.220 34.610,0.160 34.520,0.120 34.440,0.120 31.063,0.120 27.687,0.120 24.310,0.120 24.130,0.120 23.980,0.270 23.980,0.450 23.980,2.880 23.980,5.310 23.980,7.740 23.980,7.920 24.130,8.070 24.310,8.070 26.630,8.070 28.950,8.070 31.270,8.070 31.640,8.070 31.930,8.370 31.930,8.730 31.930,11.050 31.930,13.370 31.930,15.690 31.930,15.870 32.080,16.020 32.260,16.020 34.690,16.020 37.120,16.020 39.550,16.020 39.730,16.020 39.880,15.870 39.880,15.690 39.880,12.313 39.880,8.937 39.880,5.560 39.870,5.470 39.840,5.390 39.780,5.330 39.780,5.330 39.780,5.330 39.780,5.330 Z" />
    <path d="M 5.330,39.780 C 3.627,38.077 1.923,36.373 0.220,34.670 0.160,34.610 0.120,34.520 0.120,34.440 0.120,31.063 0.120,27.687 0.120,24.310 0.120,24.130 0.270,23.980 0.450,23.980 2.880,23.980 5.310,23.980 7.740,23.980 7.920,23.980 8.070,24.130 8.070,24.310 8.070,26.630 8.070,28.950 8.070,31.270 8.070,31.640 8.370,31.930 8.730,31.930 11.050,31.930 13.370,31.930 15.690,31.930 15.870,31.930 16.020,32.080 16.020,32.260 16.020,34.690 16.020,37.120 16.020,39.550 16.020,39.730 15.870,39.880 15.690,39.880 12.313,39.880 8.937,39.880 5.560,39.880 5.470,39.880 5.390,39.840 5.330,39.780 5.330,39.780 5.330,39.780 5.330,39.780 Z" />
    <path d="M 39.780,34.670 C 38.077,36.373 36.373,38.077 34.670,39.780 34.610,39.840 34.520,39.880 34.440,39.880 31.063,39.880 27.687,39.880 24.310,39.880 24.130,39.880 23.980,39.730 23.980,39.550 23.980,37.120 23.980,34.690 23.980,32.260 23.980,32.080 24.130,31.930 24.310,31.930 26.630,31.930 28.950,31.930 31.270,31.930 31.640,31.930 31.930,31.630 31.930,31.270 31.930,28.950 31.930,26.630 31.930,24.310 31.930,24.130 32.080,23.980 32.260,23.980 34.690,23.980 37.120,23.980 39.550,23.980 39.730,23.980 39.880,24.130 39.880,24.310 39.880,27.687 39.880,31.063 39.880,34.440 39.870,34.530 39.840,34.610 39.780,34.670 39.780,34.670 39.780,34.670 39.780,34.670 Z" />
  </g>
</svg>