<?xml version="1.0" encoding="UTF-8"?>
<svg xmlns="http://www.w3.org/2000/svg" viewBox="-5 -5 50 50">
  <defs>
    <linearGradient id="bg" x1="0" y1="0" x2="0" y2="40" gradientUnits="userSpaceOnUse">
      <stop offset="0%" stop-color="#BEC9D0" />
      <stop offset="33%" stop-color="#BECAD0" />
      <stop offset="80%" stop-color="#969FA4" />
      <stop offset="100%" stop-color="#788085" />
    </linearGradient>
  </defs>
  <g fill="url(#bg)">
    <path d="M 30.070,14.840 C 28.433,13.203 26.797,11.567 25.160,9.930 25.040,9.810 24.970,9.640 24.970,9.460 24.970,6.460 24.970,3.460 24.970,0.460 24.970,0.280 24.820,0.130 24.640,0.130 21.547,0.130 18.453,0.130 15.360,0.130 15.180,0.130 15.030,0.280 15.030,0.460 15.030,3.710 15.030,6.960 15.030,10.210 15.030,10.300 15.060,10.380 15.130,10.440 19.940,15.250 24.750,20.060 29.560,24.870 29.620,24.930 29.710,24.970 29.790,24.970 33.040,24.970 36.290,24.970 39.540,24.970 39.720,24.970 39.870,24.820 39.870,24.640 39.870,21.547 39.870,18.453 39.870,15.360 39.870,15.180 39.720,15.030 39.540,15.030 36.540,15.030 33.540,15.030 30.540,15.030 30.370,15.030 30.200,14.960 30.070,14.840 30.070,14.840 30.070,14.840 30.070,14.840 Z " />
    <path d="M 9.930,25.160 C 11.567,26.797 13.203,28.433 14.840,30.070 14.960,30.190 15.030,30.360 15.030,30.540 15.030,33.540 15.030,36.540 15.030,39.540 15.030,39.720 15.180,39.870 15.360,39.870 18.453,39.870 21.547,39.870 24.640,39.870 24.820,39.870 24.970,39.720 24.970,39.540 24.970,36.290 24.970,33.040 24.970,29.790 24.970,29.700 24.940,29.620 24.870,29.560 20.060,24.750 15.250,19.940 10.440,15.130 10.380,15.070 10.290,15.030 10.210,15.030 6.960,15.030 3.710,15.030 0.460,15.030 0.280,15.030 0.130,15.180 0.130,15.360 0.130,18.453 0.130,21.547 0.130,24.640 0.130,24.820 0.280,24.970 0.460,24.970 3.460,24.970 6.460,24.970 9.460,24.970 9.630,24.970 9.800,25.040 9.930,25.160 9.930,25.160 9.930,25.160 9.930,25.160 Z " />
   </g>
</svg>